<svg width="80" height="81" viewBox="0 0 80 81" fill="none" xmlns="http://www.w3.org/2000/svg">
<path d="M40 60.5L44 52.5V31.932C50.884 30.144 56 23.932 56 16.5C56 7.676 48.824 0.5 40 0.5C31.176 0.5 24 7.676 24 16.5C24 23.932 29.116 30.144 36 31.932V52.5L40 60.5ZM32 16.5C32 12.088 35.588 8.5 40 8.5C44.412 8.5 48 12.088 48 16.5C48 20.912 44.412 24.5 40 24.5C35.588 24.5 32 20.912 32 16.5Z" fill="#0784F8"/>
<path d="M57.068 34.752L54.936 42.464C65.3 45.328 72 50.836 72 56.5C72 64.068 58.86 72.5 40 72.5C21.14 72.5 8 64.068 8 56.5C8 50.836 14.7 45.328 25.068 42.46L22.936 34.748C8.788 38.66 0 46.992 0 56.5C0 69.956 17.572 80.5 40 80.5C62.428 80.5 80 69.956 80 56.5C80 46.992 71.212 38.66 57.068 34.752Z" fill="#414141"/>
</svg>
