<svg width="14" height="14" viewBox="0 0 14 14" fill="none" xmlns="http://www.w3.org/2000/svg">
<path d="M0.999988 8.33335H2.33332V13C2.33332 13.1768 2.40356 13.3464 2.52858 13.4714C2.65361 13.5964 2.82318 13.6667 2.99999 13.6667H11C11.1768 13.6667 11.3464 13.5964 11.4714 13.4714C11.5964 13.3464 11.6667 13.1768 11.6667 13V8.33335H13C13.1288 8.33346 13.2549 8.29617 13.363 8.22599C13.471 8.15581 13.5564 8.05577 13.6087 7.93802C13.6613 7.82033 13.6786 7.68987 13.6585 7.56252C13.6384 7.43517 13.5817 7.31641 13.4953 7.22068L7.49532 0.554018C7.24265 0.272684 6.75732 0.272684 6.50465 0.554018L0.504655 7.22068C0.418449 7.31646 0.361847 7.43516 0.341697 7.56244C0.321548 7.68971 0.338715 7.8201 0.391121 7.93782C0.443527 8.05554 0.528926 8.15554 0.636985 8.22574C0.745044 8.29594 0.87113 8.33332 0.999988 8.33335ZM4.96599 8.12268C4.98666 8.18602 5.50799 9.66668 6.99999 9.66668C8.51266 9.66668 9.02799 8.14202 9.03332 8.12602L10.3 8.54002C10.2673 8.64068 9.46865 11 6.99999 11C4.53132 11 3.73266 8.64068 3.69999 8.54068L4.96599 8.12268Z" fill="#333742"/>
</svg>
