<svg width="14" height="13" viewBox="0 0 14 13" fill="none" xmlns="http://www.w3.org/2000/svg">
<path d="M0.599976 1.99999C0.599976 1.57565 0.768546 1.16868 1.0686 0.868623C1.36866 0.568565 1.77563 0.399994 2.19998 0.399994H7.79998C8.22432 0.399994 8.63129 0.568565 8.93135 0.868623C9.2314 1.16868 9.39998 1.57565 9.39998 1.99999V5.19999C9.39998 5.62434 9.2314 6.03131 8.93135 6.33136C8.63129 6.63142 8.22432 6.79999 7.79998 6.79999H6.19998L3.79998 9.19999V6.79999H2.19998C1.77563 6.79999 1.36866 6.63142 1.0686 6.33136C0.768546 6.03131 0.599976 5.62434 0.599976 5.19999V1.99999Z" fill="#333742"/>
<path opacity="0.5" d="M11 3.60001V5.20001C11 6.0487 10.6628 6.86263 10.0627 7.46275C9.46261 8.06286 8.64868 8.40001 7.79998 8.40001H6.86238L5.44958 9.81361C5.67358 9.93281 5.92878 10 6.19998 10H7.79998L10.2 12.4V10H11.8C12.2243 10 12.6313 9.83143 12.9314 9.53138C13.2314 9.23132 13.4 8.82435 13.4 8.40001V5.20001C13.4 4.77566 13.2314 4.36869 12.9314 4.06864C12.6313 3.76858 12.2243 3.60001 11.8 3.60001H11Z" fill="#333742"/>
</svg>
