<svg width="16" height="16" viewBox="0 0 16 16" fill="none" xmlns="http://www.w3.org/2000/svg">
<g clip-path="url(#clip0)">
<path opacity="0.25" d="M13.4868 4.82667L8.00009 8.00001L2.51343 4.82667C2.62606 4.63167 2.78671 4.46873 2.98009 4.35334L7.33343 1.84001C7.74676 1.60668 8.25343 1.60668 8.66676 1.84001L13.0201 4.35334C13.2134 4.46868 13.3741 4.63201 13.4868 4.82667Z" fill="#333742"/>
<path opacity="0.5" d="M7.99992 7.99999V14.3333C7.78973 14.333 7.58233 14.2852 7.39325 14.1933L2.99992 11.6533C2.79756 11.5363 2.62949 11.3681 2.51249 11.1657C2.3955 10.9633 2.33369 10.7338 2.33325 10.5V5.49999C2.33435 5.2638 2.39635 5.03189 2.51325 4.82666L7.99992 7.99999Z" fill="#333742"/>
<path d="M13.6667 5.49999V10.5C13.6662 10.7338 13.6044 10.9633 13.4874 11.1657C13.3704 11.3681 13.2024 11.5363 13 11.6533L8.58667 14.2C8.40333 14.2867 8.20267 14.332 8 14.3333V7.99999L13.4867 4.82666C13.6033 5.03199 13.6653 5.26399 13.6667 5.49999Z" fill="#333742"/>
</g>
<defs>
<clipPath id="clip0">
<rect width="16" height="16" fill="white"/>
</clipPath>
</defs>
</svg>
