<svg width="12" height="14" viewBox="0 0 12 14" fill="none" xmlns="http://www.w3.org/2000/svg">
<path d="M11.3334 2.99998C11.3334 1.55465 8.89141 0.333313 6.00008 0.333313C3.10875 0.333313 0.666748 1.55465 0.666748 2.99998V4.33331C0.666748 5.77865 3.10875 6.99998 6.00008 6.99998C8.89141 6.99998 11.3334 5.77865 11.3334 4.33331V2.99998ZM6.00008 11.6666C3.10875 11.6666 0.666748 10.4453 0.666748 8.99998V11C0.666748 12.4453 3.10875 13.6666 6.00008 13.6666C8.89141 13.6666 11.3334 12.4453 11.3334 11V8.99998C11.3334 10.4453 8.89141 11.6666 6.00008 11.6666Z" fill="#333742"/>
<path opacity="0.5" d="M11.3334 5.66669C11.3334 7.11202 8.89141 8.33335 6.00008 8.33335C3.10875 8.33335 0.666748 7.11202 0.666748 5.66669V7.66669C0.666748 9.11202 3.10875 10.3334 6.00008 10.3334C8.89141 10.3334 11.3334 9.11202 11.3334 7.66669V5.66669Z" fill="#333742"/>
</svg>
