<svg width="14" height="14" viewBox="0 0 14 14" fill="none" xmlns="http://www.w3.org/2000/svg">
<path d="M6.99998 10.3335L7.66665 9.00016V5.57216C8.81398 5.27416 9.66665 4.23883 9.66665 3.00016C9.66665 1.5295 8.47065 0.333496 6.99998 0.333496C5.52931 0.333496 4.33331 1.5295 4.33331 3.00016C4.33331 4.23883 5.18598 5.27416 6.33331 5.57216V9.00016L6.99998 10.3335ZM5.66665 3.00016C5.66665 2.26483 6.26465 1.66683 6.99998 1.66683C7.73531 1.66683 8.33331 2.26483 8.33331 3.00016C8.33331 3.7355 7.73531 4.3335 6.99998 4.3335C6.26465 4.3335 5.66665 3.7355 5.66665 3.00016Z" fill="#333742"/>
<path d="M9.84465 6.04217L9.48931 7.3275C11.2166 7.80484 12.3333 8.72284 12.3333 9.66684C12.3333 10.9282 10.1433 12.3335 6.99998 12.3335C3.85665 12.3335 1.66665 10.9282 1.66665 9.66684C1.66665 8.72284 2.78331 7.80484 4.51131 7.32684L4.15598 6.0415C1.79798 6.6935 0.333313 8.08217 0.333313 9.66684C0.333313 11.9095 3.26198 13.6668 6.99998 13.6668C10.738 13.6668 13.6666 11.9095 13.6666 9.66684C13.6666 8.08217 12.202 6.6935 9.84465 6.04217Z" fill="#333742"/>
</svg>
