<svg width="14" height="14" viewBox="0 0 14 14" fill="none" xmlns="http://www.w3.org/2000/svg">
<path d="M13.5 6.81035C13.4958 6.73237 13.4641 6.6584 13.4106 6.60154C13.357 6.54469 13.2851 6.50862 13.2075 6.49973L12.4063 6.37004C12.3702 6.36413 12.337 6.34673 12.3117 6.32043C12.2864 6.29413 12.2702 6.26034 12.2656 6.2241C12.2503 6.12567 12.2344 6.02348 12.2125 5.9266C12.2055 5.89137 12.2096 5.85481 12.2243 5.82204C12.2391 5.78926 12.2637 5.76191 12.2947 5.74379L13.0066 5.34848C13.0773 5.31245 13.1322 5.25169 13.161 5.17776C13.1899 5.10384 13.1905 5.0219 13.1628 4.94754L13.0394 4.60692C13.0123 4.5323 12.9587 4.47029 12.8887 4.43276C12.8188 4.39522 12.7375 4.3848 12.6603 4.40348L11.8619 4.55973C11.8262 4.56611 11.7894 4.56106 11.7567 4.54529C11.7241 4.52952 11.6972 4.50384 11.68 4.47192C11.6334 4.38473 11.5828 4.29598 11.53 4.20879C11.5108 4.17773 11.5018 4.14145 11.5043 4.10502C11.5068 4.0686 11.5206 4.03386 11.5438 4.00567L12.075 3.39192C12.129 3.33398 12.16 3.25836 12.1622 3.17921C12.1645 3.10007 12.1378 3.02282 12.0872 2.96192L11.8553 2.68348C11.8049 2.62237 11.7336 2.58214 11.6552 2.5706C11.5768 2.55905 11.4969 2.577 11.4309 2.62098L10.7319 3.04067C10.7009 3.05924 10.6647 3.06735 10.6288 3.0638C10.5928 3.06026 10.559 3.04524 10.5322 3.02098C10.455 2.95317 10.3759 2.88785 10.3019 2.82754C10.2735 2.80511 10.2529 2.7742 10.2433 2.7393C10.2336 2.70441 10.2353 2.66734 10.2481 2.63348L10.5375 1.87098C10.569 1.79822 10.5727 1.71643 10.5479 1.64113C10.5231 1.56583 10.4714 1.50228 10.4028 1.46254L10.0875 1.27848C10.0188 1.23889 9.938 1.22602 9.86044 1.24234C9.78288 1.25866 9.71408 1.30301 9.66719 1.36692L9.15626 2.00879C9.13788 2.03669 9.11035 2.05732 9.07842 2.06713C9.04648 2.07693 9.01213 2.07531 8.98126 2.06254C8.96219 2.05473 8.80094 1.98879 8.67563 1.94692C8.64126 1.93571 8.61137 1.91381 8.59034 1.8844C8.56931 1.85499 8.55824 1.81963 8.55876 1.78348L8.57094 0.968791C8.5753 0.889241 8.5505 0.810832 8.50121 0.748247C8.45191 0.685661 8.38149 0.643192 8.30313 0.628791L7.94532 0.566291C7.86736 0.552823 7.78716 0.568115 7.71962 0.609326C7.65209 0.650536 7.60181 0.714864 7.57813 0.790354L7.31251 1.56567C7.30044 1.60008 7.27767 1.62973 7.24752 1.65026C7.21738 1.67078 7.18145 1.68111 7.14501 1.67973H6.84032C6.80415 1.68047 6.76868 1.66979 6.73894 1.64919C6.7092 1.6286 6.68672 1.59915 6.67469 1.56504L6.41032 0.794104C6.38706 0.718062 6.33688 0.653108 6.26917 0.611403C6.20147 0.569698 6.12088 0.554104 6.04251 0.567541L5.68407 0.630041C5.60621 0.644328 5.53618 0.686382 5.48699 0.748394C5.43779 0.810406 5.41277 0.888163 5.41657 0.967229L5.42907 1.78473C5.42932 1.82142 5.41771 1.85721 5.39598 1.88677C5.37424 1.91633 5.34354 1.93809 5.30844 1.94879C5.23688 1.9766 5.08157 2.03598 5.01094 2.06223C4.94844 2.08473 4.88032 2.06004 4.82532 1.9966L4.31719 1.3716C4.27057 1.30731 4.20183 1.26252 4.12418 1.24585C4.04654 1.22918 3.96547 1.2418 3.89657 1.28129L3.58219 1.46348C3.51283 1.50329 3.46066 1.56737 3.43573 1.64336C3.4108 1.71935 3.41489 1.80188 3.44719 1.87504L3.73626 2.63567C3.74887 2.6696 3.75052 2.70663 3.74099 2.74155C3.73146 2.77647 3.71123 2.80753 3.68313 2.83035C3.60719 2.89285 3.52938 2.95535 3.45188 3.02473C3.42527 3.0488 3.39165 3.06373 3.35595 3.06733C3.32024 3.07093 3.28432 3.06301 3.25344 3.04473L2.56251 2.61692C2.49616 2.57376 2.41635 2.5563 2.33804 2.5678C2.25973 2.57931 2.18832 2.619 2.13719 2.67942L1.90626 2.95723C1.85496 3.01772 1.82777 3.095 1.82991 3.17428C1.83204 3.25356 1.86334 3.32927 1.91782 3.38692L2.45157 4.00004C2.47525 4.02767 2.48941 4.06219 2.49195 4.0985C2.49448 4.1348 2.48525 4.17095 2.46563 4.2016C2.41219 4.2866 2.36126 4.37598 2.31501 4.46535C2.2977 4.4975 2.27066 4.52335 2.23777 4.53918C2.20487 4.55501 2.1678 4.56002 2.13188 4.55348L1.33469 4.39942C1.25751 4.38079 1.17617 4.39124 1.1062 4.42876C1.03622 4.46628 0.982513 4.52826 0.955318 4.60285L0.830318 4.94285C0.802689 5.01731 0.803335 5.09932 0.832133 5.17333C0.860932 5.24734 0.915881 5.30821 0.986568 5.34442L1.69844 5.73973C1.73046 5.7574 1.75585 5.785 1.77079 5.81838C1.78573 5.85175 1.7894 5.88908 1.78126 5.92473L1.77376 5.96442C1.75751 6.0516 1.74251 6.1341 1.72813 6.22192C1.72316 6.2577 1.707 6.29099 1.68197 6.31703C1.65694 6.34308 1.62431 6.36054 1.58876 6.36692L0.785943 6.4966C0.707432 6.50624 0.635115 6.54413 0.582496 6.60319C0.529877 6.66225 0.500555 6.73844 0.500005 6.81754V7.17942C0.499548 7.25882 0.528569 7.33556 0.58145 7.3948C0.634332 7.45403 0.70731 7.49153 0.786255 7.50004L1.58876 7.62942C1.62482 7.63528 1.65801 7.65267 1.68336 7.67898C1.70871 7.70529 1.72486 7.7391 1.72938 7.77535C1.74469 7.8741 1.76063 7.97598 1.78251 8.07285C1.78955 8.10809 1.78542 8.14465 1.77069 8.17742C1.75595 8.2102 1.73135 8.23755 1.70032 8.25567L0.988755 8.6516C0.918069 8.68764 0.863092 8.74839 0.834282 8.82232C0.805473 8.89624 0.80484 8.97818 0.832505 9.05254L0.957505 9.39317C0.984638 9.46774 1.03829 9.52971 1.10821 9.56723C1.17813 9.60476 1.25943 9.61521 1.33657 9.5966L2.13501 9.44192C2.17071 9.43544 2.20755 9.44045 2.24023 9.45622C2.27291 9.472 2.29975 9.49774 2.31688 9.52973C2.36376 9.61723 2.41407 9.70567 2.46688 9.79285C2.48615 9.82388 2.49519 9.86019 2.49273 9.89663C2.49026 9.93308 2.47641 9.96783 2.45313 9.99598L1.92188 10.6094C1.86728 10.6669 1.83556 10.7424 1.83268 10.8216C1.82981 10.9009 1.85597 10.9784 1.90626 11.0397L2.13782 11.3182C2.18822 11.3793 2.25955 11.4196 2.33797 11.4312C2.41638 11.4427 2.49629 11.4247 2.56219 11.3807L3.26126 10.961C3.29225 10.9424 3.32839 10.9343 3.36435 10.9378C3.40031 10.9414 3.43417 10.9564 3.46094 10.9807C3.53844 11.0485 3.61719 11.1138 3.69126 11.1741C3.71966 11.1966 3.7402 11.2274 3.74991 11.2623C3.75963 11.2972 3.75802 11.3343 3.74532 11.3682L3.45563 12.1307C3.42412 12.2034 3.42042 12.2852 3.44525 12.3605C3.47009 12.4358 3.52171 12.4994 3.59032 12.5391L3.90626 12.7216C3.97488 12.7612 4.0557 12.7741 4.13326 12.7579C4.21081 12.7416 4.27964 12.6973 4.32657 12.6335L4.84376 11.9975C4.88751 11.9435 4.95625 11.9194 5.00719 11.94C5.11594 11.985 5.18876 12.0104 5.31782 12.0535C5.3522 12.0647 5.3821 12.0866 5.40317 12.116C5.42425 12.1454 5.4354 12.1808 5.43501 12.2169L5.42251 13.031C5.41829 13.1105 5.44313 13.1888 5.49241 13.2514C5.54168 13.314 5.61202 13.3565 5.69032 13.371L6.04813 13.4335C6.12611 13.4471 6.20637 13.4319 6.27393 13.3906C6.3415 13.3494 6.39176 13.285 6.41532 13.2094L6.68094 12.4354C6.69296 12.4009 6.71573 12.3712 6.74588 12.3507C6.77604 12.3302 6.81199 12.3199 6.84844 12.3213H7.15313C7.1893 12.3205 7.2248 12.3312 7.25455 12.3518C7.2843 12.3724 7.30677 12.4018 7.31876 12.436L7.58344 13.2069C7.60395 13.2738 7.64536 13.3324 7.70159 13.3741C7.75783 13.4158 7.82595 13.4383 7.89594 13.4385C7.9146 13.4385 7.93322 13.4368 7.95157 13.4335L8.31001 13.371C8.38786 13.3567 8.45789 13.3146 8.50708 13.2526C8.55628 13.1906 8.5813 13.1129 8.57751 13.0338L8.56501 12.2163C8.56476 12.1803 8.57599 12.1451 8.59706 12.1159C8.61812 12.0867 8.64794 12.0649 8.68219 12.0538C8.80219 12.0135 8.88657 11.981 8.96063 11.9522L8.97938 11.945C9.07626 11.9116 9.12313 11.9522 9.15032 11.986L9.67376 12.6307C9.72067 12.6944 9.78944 12.7387 9.86693 12.7549C9.94441 12.7712 10.0252 12.7583 10.0938 12.7188L10.4084 12.5366C10.4773 12.4968 10.5291 12.4331 10.5539 12.3576C10.5787 12.2821 10.5749 12.2001 10.5431 12.1272L10.2544 11.3666C10.2416 11.3327 10.2399 11.2957 10.2494 11.2607C10.2588 11.2258 10.2791 11.1947 10.3072 11.1719C10.3831 11.1094 10.4609 11.0469 10.5384 10.9775C10.5652 10.9534 10.599 10.9385 10.6349 10.935C10.6708 10.9315 10.7069 10.9396 10.7378 10.9582L11.4375 11.3769C11.5038 11.4201 11.5837 11.4376 11.662 11.4261C11.7403 11.4146 11.8117 11.3749 11.8628 11.3144L12.0941 11.0363C12.1454 10.9758 12.1726 10.8985 12.1704 10.8192C12.1683 10.74 12.137 10.6642 12.0825 10.6066L11.5494 9.99192C11.5257 9.96429 11.5115 9.92976 11.509 9.89346C11.5065 9.85716 11.5157 9.821 11.5353 9.79035C11.5888 9.70567 11.6397 9.61629 11.6859 9.5266C11.7033 9.49452 11.7304 9.46873 11.7632 9.45291C11.7961 9.43709 11.8332 9.43204 11.8691 9.43848L12.6653 9.59379C12.7425 9.61242 12.8238 9.60197 12.8938 9.56445C12.9638 9.52692 13.0175 9.46495 13.0447 9.39035L13.1681 9.05035C13.1957 8.97594 13.1951 8.89398 13.1663 8.82002C13.1375 8.74607 13.0825 8.68525 13.0119 8.6491L12.2994 8.25317C12.2678 8.23532 12.2428 8.20778 12.2281 8.17463C12.2135 8.14148 12.2098 8.10447 12.2178 8.0691L12.2253 8.02942C12.2416 7.94223 12.2566 7.85973 12.2709 7.77192C12.2759 7.73614 12.2921 7.70284 12.3171 7.6768C12.3421 7.65076 12.3748 7.6333 12.4103 7.62692L13.2131 7.49754C13.2918 7.48804 13.3644 7.45018 13.4172 7.39105C13.47 7.33192 13.4994 7.25557 13.5 7.17629V6.81035ZM4.67344 9.74785C4.6345 9.81557 4.58005 9.87308 4.51455 9.91566C4.44906 9.95823 4.37441 9.98467 4.29671 9.99278C4.21902 10.0009 4.14051 9.99046 4.06764 9.96233C3.99476 9.9342 3.9296 9.88919 3.87751 9.83098C3.17349 9.05255 2.78477 8.03973 2.78719 6.99016C2.78962 5.94059 3.18302 4.92958 3.89063 4.15442C3.943 4.09623 4.00844 4.05132 4.08156 4.02339C4.15469 3.99546 4.2334 3.9853 4.31122 3.99375C4.38904 4.0022 4.46374 4.02903 4.52916 4.07201C4.59458 4.11499 4.64886 4.17291 4.68751 4.24098L6.11407 6.75192C6.1569 6.8268 6.17944 6.91158 6.17944 6.99785C6.17944 7.08413 6.1569 7.1689 6.11407 7.24379L4.67344 9.74785ZM7.00001 11.2222C6.70263 11.2223 6.40608 11.1909 6.11532 11.1285C6.03957 11.1116 5.96888 11.077 5.90897 11.0277C5.84905 10.9783 5.80161 10.9156 5.77047 10.8445C5.73934 10.7734 5.72539 10.696 5.72976 10.6185C5.73413 10.541 5.7567 10.4656 5.79563 10.3985L7.23313 7.89848C7.27637 7.82315 7.33872 7.76056 7.4139 7.71705C7.48907 7.67354 7.5744 7.65064 7.66126 7.65067H10.5406C10.6182 7.65055 10.6947 7.6687 10.7639 7.70365C10.8332 7.73861 10.8932 7.78939 10.9391 7.85187C10.9851 7.91435 11.0157 7.98678 11.0284 8.06328C11.0412 8.13979 11.0357 8.21822 11.0125 8.29223C10.4659 9.98973 8.87501 11.2222 7.00001 11.2222ZM7.23469 6.10035L5.81251 3.59598C5.77396 3.52873 5.75178 3.45335 5.74776 3.37595C5.74374 3.29854 5.75799 3.22127 5.78935 3.15039C5.82072 3.07951 5.86832 3.017 5.92831 2.96792C5.9883 2.91883 6.059 2.88456 6.13469 2.86785C6.41922 2.80789 6.70923 2.77773 7.00001 2.77785C8.87501 2.77785 10.4659 4.01035 11.0116 5.70879C11.0348 5.78279 11.0402 5.86123 11.0275 5.93774C11.0148 6.01424 10.9842 6.08667 10.9382 6.14915C10.8923 6.21163 10.8322 6.26241 10.763 6.29737C10.6938 6.33232 10.6173 6.35047 10.5397 6.35035H7.66469C7.57729 6.35053 7.49142 6.32747 7.41586 6.28354C7.34031 6.23961 7.27778 6.17639 7.23469 6.10035Z" fill="#333742"/>
</svg>
