<svg width="16" height="16" viewBox="0 0 16 16" fill="none" xmlns="http://www.w3.org/2000/svg">
<path d="M8 4C8 3.63333 7.7 3.33333 7.33333 3.33333H3.88L4.32 1.21333L4.33333 1.06C4.33333 0.853333 4.24667 0.666667 4.11333 0.526667L3.58667 0L0.293333 3.29333C0.113333 3.47333 0 3.72667 0 4V8.33333C0 8.88667 0.446667 9.33333 1 9.33333H5.5C5.91333 9.33333 6.26667 9.08 6.42 8.72667L7.92667 5.2C7.97333 5.08667 8 4.96 8 4.83333V4ZM15 6.66667H10.5C10.0867 6.66667 9.73333 6.92 9.58 7.27333L8.07333 10.8C8.02667 10.9133 8 11.04 8 11.1667V12C8 12.3667 8.3 12.6667 8.66667 12.6667H12.12L11.68 14.7867L11.6667 14.9467C11.6667 15.1533 11.7533 15.34 11.8867 15.48L12.4133 16L15.7067 12.7067C15.8867 12.5267 16 12.2733 16 12V7.66667C16 7.11333 15.5533 6.66667 15 6.66667Z" fill="#333742"/>
</svg>
