<svg width="18" height="14" viewBox="0 0 18 14" fill="none" xmlns="http://www.w3.org/2000/svg">
<path d="M15.875 6.01172C15.481 5.83876 15.0553 5.74963 14.625 5.75H3.375C2.94473 5.74959 2.51907 5.83858 2.125 6.01133C1.56805 6.25489 1.09412 6.65543 0.761131 7.164C0.428145 7.67256 0.250532 8.26712 0.25 8.875V13.25C0.25 13.4158 0.315848 13.5747 0.433058 13.6919C0.550268 13.8092 0.70924 13.875 0.875 13.875C1.04076 13.875 1.19973 13.8092 1.31694 13.6919C1.43415 13.5747 1.5 13.4158 1.5 13.25V12.9375C1.50101 12.8549 1.53426 12.776 1.59265 12.7177C1.65104 12.6593 1.72993 12.626 1.8125 12.625H16.1875C16.2701 12.626 16.349 12.6593 16.4074 12.7177C16.4657 12.776 16.499 12.8549 16.5 12.9375V13.25C16.5 13.4158 16.5658 13.5747 16.6831 13.6919C16.8003 13.8092 16.9592 13.875 17.125 13.875C17.2908 13.875 17.4497 13.8092 17.5669 13.6919C17.6842 13.5747 17.75 13.4158 17.75 13.25V8.875C17.7494 8.26719 17.5717 7.67271 17.2388 7.16423C16.9058 6.65574 16.4319 6.25525 15.875 6.01172Z" fill="#3C88EB"/>
<path opacity="0.5" d="M13.6875 0.125H4.3125C3.73234 0.125 3.17594 0.355468 2.7657 0.765704C2.35547 1.17594 2.125 1.73234 2.125 2.3125V5.125C2.12502 5.14921 2.13066 5.17309 2.14149 5.19475C2.15231 5.21641 2.16803 5.23525 2.18738 5.2498C2.20674 5.26434 2.22921 5.27419 2.25303 5.27857C2.27684 5.28294 2.30135 5.28172 2.32461 5.275C2.6658 5.17521 3.01951 5.1247 3.375 5.125H3.54023C3.5788 5.12524 3.6161 5.11122 3.64494 5.08562C3.67379 5.06002 3.69215 5.02465 3.69648 4.98633C3.73057 4.68093 3.87596 4.3988 4.10488 4.1938C4.3338 3.9888 4.63021 3.87531 4.9375 3.875H7.125C7.43249 3.87502 7.72919 3.98839 7.95835 4.19341C8.18752 4.39843 8.33308 4.68073 8.36719 4.98633C8.37153 5.02465 8.38988 5.06002 8.41873 5.08562C8.44758 5.11122 8.48487 5.12524 8.52344 5.125H9.47891C9.51747 5.12524 9.55477 5.11122 9.58361 5.08562C9.61246 5.06002 9.63082 5.02465 9.63516 4.98633C9.66922 4.68113 9.81444 4.39916 10.0431 4.19419C10.2718 3.98922 10.5679 3.8756 10.875 3.875H13.0625C13.37 3.87502 13.6667 3.98839 13.8959 4.19341C14.125 4.39843 14.2706 4.68073 14.3047 4.98633C14.309 5.02465 14.3274 5.06002 14.3562 5.08562C14.3851 5.11122 14.4224 5.12524 14.4609 5.125H14.625C14.9805 5.12483 15.3342 5.17547 15.6754 5.27539C15.6987 5.28212 15.7232 5.28333 15.7471 5.27894C15.7709 5.27455 15.7934 5.26466 15.8128 5.25007C15.8321 5.23548 15.8478 5.21659 15.8586 5.19488C15.8694 5.17317 15.875 5.14925 15.875 5.125V2.3125C15.875 1.73234 15.6445 1.17594 15.2343 0.765704C14.8241 0.355468 14.2677 0.125 13.6875 0.125Z" fill="#3C88EB"/>
</svg>
