<svg width="14" height="12" viewBox="0 0 14 12" fill="none" xmlns="http://www.w3.org/2000/svg">
<path d="M12.5 5.20938C12.1848 5.071 11.8442 4.9997 11.5 5H2.5C2.15578 4.99967 1.81525 5.07086 1.5 5.20906C1.05444 5.40391 0.675292 5.72435 0.408904 6.1312C0.142516 6.53805 0.000425765 7.0137 0 7.5V11C0 11.1326 0.0526784 11.2598 0.146447 11.3536C0.240215 11.4473 0.367392 11.5 0.5 11.5C0.632608 11.5 0.759785 11.4473 0.853553 11.3536C0.947322 11.2598 1 11.1326 1 11V10.75C1.00081 10.6839 1.02741 10.6208 1.07412 10.5741C1.12083 10.5274 1.18395 10.5008 1.25 10.5H12.75C12.8161 10.5008 12.8792 10.5274 12.9259 10.5741C12.9726 10.6208 12.9992 10.6839 13 10.75V11C13 11.1326 13.0527 11.2598 13.1464 11.3536C13.2402 11.4473 13.3674 11.5 13.5 11.5C13.6326 11.5 13.7598 11.4473 13.8536 11.3536C13.9473 11.2598 14 11.1326 14 11V7.5C13.9995 7.01375 13.8574 6.53817 13.591 6.13138C13.3246 5.72459 12.9455 5.4042 12.5 5.20938Z" fill="#fff"/>
<path opacity="0.5" d="M10.75 0.5H3.25C2.78587 0.5 2.34075 0.684375 2.01256 1.01256C1.68437 1.34075 1.5 1.78587 1.5 2.25V4.5C1.50001 4.51937 1.50453 4.53847 1.51319 4.5558C1.52185 4.57313 1.53442 4.5882 1.54991 4.59984C1.56539 4.61148 1.58337 4.61935 1.60242 4.62285C1.62147 4.62635 1.64108 4.62538 1.65969 4.62C1.93264 4.54017 2.21561 4.49976 2.5 4.5H2.63219C2.66304 4.5002 2.69288 4.48897 2.71595 4.46849C2.73903 4.44801 2.75372 4.41972 2.75719 4.38906C2.78446 4.14475 2.90077 3.91904 3.0839 3.75504C3.26704 3.59104 3.50417 3.50025 3.75 3.5H5.5C5.74599 3.50002 5.98335 3.59071 6.16668 3.75473C6.35002 3.91875 6.46646 4.14459 6.49375 4.38906C6.49722 4.41972 6.51191 4.44801 6.53498 4.46849C6.55806 4.48897 6.5879 4.5002 6.61875 4.5H7.38313C7.41398 4.5002 7.44381 4.48897 7.46689 4.46849C7.48997 4.44801 7.50465 4.41972 7.50813 4.38906C7.53538 4.14491 7.65155 3.91933 7.83449 3.75535C8.01743 3.59138 8.25433 3.50048 8.5 3.5H10.25C10.496 3.50002 10.7334 3.59071 10.9167 3.75473C11.1 3.91875 11.2165 4.14459 11.2437 4.38906C11.2472 4.41972 11.2619 4.44801 11.285 4.46849C11.3081 4.48897 11.3379 4.5002 11.3687 4.5H11.5C11.7844 4.49986 12.0674 4.54038 12.3403 4.62031C12.3589 4.6257 12.3786 4.62667 12.3977 4.62315C12.4167 4.61964 12.4347 4.61173 12.4502 4.60006C12.4657 4.58839 12.4783 4.57327 12.4869 4.5559C12.4956 4.53854 12.5 4.5194 12.5 4.5V2.25C12.5 1.78587 12.3156 1.34075 11.9874 1.01256C11.6592 0.684375 11.2141 0.5 10.75 0.5Z" fill="#fff"/>
</svg>
