<svg width="18" height="14" viewBox="0 0 18 14" fill="none" xmlns="http://www.w3.org/2000/svg">
<path d="M3.14003 6.86003L0.360029 9.65003C0.170029 9.85003 0.170029 10.16 0.360029 10.36L3.14003 13.15C3.45003 13.47 3.99003 13.24 3.99003 12.8V11H10C10.55 11 11 10.55 11 10C11 9.45003 10.55 9.00003 10 9.00003H3.99003V7.21003C3.99003 6.76003 3.45003 6.54003 3.14003 6.86003ZM17.65 3.65003L14.87 0.860027C14.56 0.540027 14.02 0.770027 14.02 1.21003V3.00003H8.00003C7.45003 3.00003 7.00003 3.45003 7.00003 4.00003C7.00003 4.55003 7.45003 5.00003 8.00003 5.00003H14.01V6.79003C14.01 7.24003 14.55 7.46003 14.86 7.14003L17.64 4.35003C17.84 4.16003 17.84 3.84003 17.65 3.65003Z" fill="#A8ADB4"/>
</svg>
