<svg width="15" height="14" viewBox="0 0 15 14" fill="none" xmlns="http://www.w3.org/2000/svg">
<path d="M4.24998 3.00001H9.54998C9.67389 3.60703 10.0188 4.14642 10.5178 4.5136C11.0168 4.88079 11.6343 5.04962 12.2507 4.98735C12.8671 4.92508 13.4385 4.63615 13.8539 4.17658C14.2694 3.71701 14.4995 3.11954 14.4995 2.50001C14.4995 1.88047 14.2694 1.283 13.8539 0.823429C13.4385 0.363861 12.8671 0.0749344 12.2507 0.0126653C11.6343 -0.0496039 11.0168 0.11922 10.5178 0.486407C10.0188 0.853594 9.67389 1.39298 9.54998 2.00001H4.24998C3.52063 2.00001 2.82116 2.28974 2.30543 2.80546C1.78971 3.32119 1.49998 4.02066 1.49998 4.75001C1.49998 5.47935 1.78971 6.17882 2.30543 6.69455C2.82116 7.21027 3.52063 7.50001 4.24998 7.50001H9.74998C10.2141 7.50001 10.6592 7.68438 10.9874 8.01257C11.3156 8.34076 11.5 8.78588 11.5 9.25001C11.5 9.71413 11.3156 10.1593 10.9874 10.4874C10.6592 10.8156 10.2141 11 9.74998 11H5.44998C5.32607 10.393 4.98118 9.85359 4.48218 9.48641C3.98318 9.11922 3.36562 8.9504 2.74922 9.01267C2.13281 9.07493 1.56149 9.36386 1.14601 9.82343C0.730528 10.283 0.500488 10.8805 0.500488 11.5C0.500488 12.1195 0.730528 12.717 1.14601 13.1766C1.56149 13.6362 2.13281 13.9251 2.74922 13.9873C3.36562 14.0496 3.98318 13.8808 4.48218 13.5136C4.98118 13.1464 5.32607 12.607 5.44998 12H9.74998C10.4793 12 11.1788 11.7103 11.6945 11.1945C12.2102 10.6788 12.5 9.97935 12.5 9.25001C12.5 8.52066 12.2102 7.82119 11.6945 7.30546C11.1788 6.78974 10.4793 6.50001 9.74998 6.50001H4.24998C3.78585 6.50001 3.34073 6.31563 3.01254 5.98744C2.68435 5.65925 2.49998 5.21413 2.49998 4.75001C2.49998 4.28588 2.68435 3.84076 3.01254 3.51257C3.34073 3.18438 3.78585 3.00001 4.24998 3.00001ZM12 1.00001C12.2966 1.00001 12.5867 1.08798 12.8333 1.2528C13.08 1.41762 13.2723 1.65189 13.3858 1.92598C13.4993 2.20007 13.529 2.50167 13.4712 2.79264C13.4133 3.08361 13.2704 3.35089 13.0606 3.56067C12.8509 3.77044 12.5836 3.91331 12.2926 3.97118C12.0016 4.02906 11.7 3.99936 11.426 3.88582C11.1519 3.77229 10.9176 3.58003 10.7528 3.33336C10.588 3.08669 10.5 2.79668 10.5 2.50001C10.5 2.10218 10.658 1.72065 10.9393 1.43935C11.2206 1.15804 11.6022 1.00001 12 1.00001ZM2.99998 13C2.70331 13 2.4133 12.912 2.16662 12.7472C1.91995 12.5824 1.72769 12.3481 1.61416 12.074C1.50063 11.7999 1.47092 11.4983 1.5288 11.2074C1.58668 10.9164 1.72954 10.6491 1.93932 10.4393C2.1491 10.2296 2.41637 10.0867 2.70734 10.0288C2.99831 9.97095 3.29991 10.0007 3.574 10.1142C3.84809 10.2277 4.08236 10.42 4.24718 10.6667C4.412 10.9133 4.49998 11.2033 4.49998 11.5C4.49998 11.8978 4.34194 12.2794 4.06064 12.5607C3.77933 12.842 3.3978 13 2.99998 13Z" fill="#0784F8"/>
</svg>
