<svg width="16" height="16" viewBox="0 0 16 16" fill="none" xmlns="http://www.w3.org/2000/svg">
<path d="M13.3327 4.00016C13.3327 2.55483 10.8907 1.3335 7.99935 1.3335C5.10802 1.3335 2.66602 2.55483 2.66602 4.00016V5.3335C2.66602 6.77883 5.10802 8.00016 7.99935 8.00016C10.8907 8.00016 13.3327 6.77883 13.3327 5.3335V4.00016ZM7.99935 12.6668C5.10802 12.6668 2.66602 11.4455 2.66602 10.0002V12.0002C2.66602 13.4455 5.10802 14.6668 7.99935 14.6668C10.8907 14.6668 13.3327 13.4455 13.3327 12.0002V10.0002C13.3327 11.4455 10.8907 12.6668 7.99935 12.6668Z" fill="#1A73E8"/>
<path opacity="0.5" d="M13.3327 6.6665C13.3327 8.11184 10.8907 9.33317 7.99935 9.33317C5.10802 9.33317 2.66602 8.11184 2.66602 6.6665V8.6665C2.66602 10.1118 5.10802 11.3332 7.99935 11.3332C10.8907 11.3332 13.3327 10.1118 13.3327 8.6665V6.6665Z" fill="#1A73E8"/>
</svg>
