<svg width="13" height="18" viewBox="0 0 13 18" fill="none" xmlns="http://www.w3.org/2000/svg">
<path d="M0.166016 3.16676V14.8334C0.166016 15.0544 0.253813 15.2664 0.410093 15.4227C0.566374 15.579 0.778335 15.6668 0.999349 15.6668H3.49935V14.0001H1.83268V4.0001H3.49935V2.33343H0.999349C0.778335 2.33343 0.566374 2.42123 0.410093 2.57751C0.253813 2.73379 0.166016 2.94575 0.166016 3.16676ZM12.0343 2.35843L5.36768 0.691762C5.24486 0.661129 5.11668 0.658878 4.99286 0.68518C4.86904 0.711482 4.75284 0.765645 4.65308 0.843558C4.55332 0.921472 4.47262 1.02109 4.4171 1.13485C4.36159 1.2486 4.33272 1.37351 4.33268 1.5001V16.5001C4.33239 16.6268 4.36105 16.7519 4.41646 16.8658C4.47188 16.9797 4.55259 17.0795 4.65244 17.1575C4.75229 17.2354 4.86863 17.2896 4.99258 17.3157C5.11654 17.3419 5.24484 17.3394 5.36768 17.3084L12.0343 15.6418C12.2147 15.5968 12.3749 15.4928 12.4893 15.3463C12.6038 15.1998 12.666 15.0193 12.666 14.8334V3.16676C12.666 2.98088 12.6038 2.80035 12.4893 2.65388C12.3749 2.50741 12.2147 2.40341 12.0343 2.35843ZM8.49935 9.15676C8.48975 9.37133 8.39776 9.57393 8.24253 9.72237C8.0873 9.87081 7.8808 9.95365 7.66602 9.95365C7.45123 9.95365 7.24473 9.87081 7.0895 9.72237C6.93427 9.57393 6.84228 9.37133 6.83268 9.15676V8.8426C6.83279 8.62158 6.9207 8.40966 7.07705 8.25346C7.23341 8.09726 7.44542 8.00957 7.66643 8.00968C7.88745 8.00979 8.09936 8.09769 8.25557 8.25405C8.41177 8.41041 8.49946 8.62242 8.49935 8.84343V9.15676Z" fill="#FFA726"/>
</svg>
