<svg width="8" height="12" viewBox="0 0 8 12" fill="none" xmlns="http://www.w3.org/2000/svg">
<path d="M7.90218 5.87293L2.81133 11.8729C2.75735 11.9365 2.68598 11.9791 2.60803 11.994C2.53009 12.009 2.44983 11.9956 2.37943 11.9559C2.30904 11.9161 2.25234 11.8522 2.21795 11.7738C2.18357 11.6955 2.17336 11.6069 2.18888 11.5215L2.85551 7.85511L0.235997 6.77457C0.180011 6.75149 0.130065 6.71358 0.090579 6.66419C0.0510935 6.6148 0.0232875 6.55547 0.00962338 6.49144C-0.00404069 6.42741 -0.00314124 6.36067 0.012242 6.29711C0.0276252 6.23356 0.0570176 6.17516 0.0978165 6.12708L5.18867 0.127141C5.24265 0.0634928 5.31403 0.0209503 5.39198 0.0059692C5.46993 -0.00901189 5.55019 0.0043862 5.6206 0.0441304C5.691 0.0838747 5.74769 0.147796 5.78207 0.226194C5.81646 0.304592 5.82665 0.393188 5.81112 0.478538L5.14449 4.145L7.764 5.22549C7.81999 5.24857 7.86994 5.28649 7.90942 5.33587C7.94891 5.38526 7.97671 5.44459 7.99038 5.50862C8.00404 5.57265 8.00314 5.6394 7.98776 5.70295C7.97237 5.7665 7.94298 5.82491 7.90218 5.87298V5.87293Z" fill="current"/>
</svg>
