<svg width="20" height="10" viewBox="0 0 20 10" fill="none" xmlns="http://www.w3.org/2000/svg">
<path fill-rule="evenodd" clip-rule="evenodd" d="M4.3741 9.375C3.59119 9.37484 2.82268 9.1646 2.14872 8.7662C1.47476 8.36781 0.92005 7.79587 0.54246 7.11004C0.16487 6.42421 -0.0217662 5.64962 0.00202014 4.86708C0.0258065 4.08454 0.259144 3.32271 0.677692 2.66108C1.09624 1.99945 1.68466 1.46226 2.38157 1.10553C3.07849 0.748812 3.85835 0.585634 4.63982 0.633023C5.42129 0.680413 6.17572 0.936633 6.82442 1.37496C7.47312 1.81328 7.99232 2.41764 8.32785 3.125H17.4991L19.3741 5L17.4991 6.875L16.2491 5.625L14.9991 6.875L13.7491 5.625L12.4991 6.875L11.2491 5.625L9.9991 6.875H8.32785C7.97296 7.62316 7.41304 8.25525 6.71315 8.69779C6.01327 9.14034 5.20216 9.37517 4.3741 9.375ZM3.1241 6.25C3.45562 6.25 3.77356 6.1183 4.00798 5.88388C4.2424 5.64946 4.3741 5.33152 4.3741 5C4.3741 4.66848 4.2424 4.35054 4.00798 4.11612C3.77356 3.8817 3.45562 3.75 3.1241 3.75C2.79258 3.75 2.47463 3.8817 2.24021 4.11612C2.00579 4.35054 1.8741 4.66848 1.8741 5C1.8741 5.33152 2.00579 5.64946 2.24021 5.88388C2.47463 6.1183 2.79258 6.25 3.1241 6.25Z" fill="#0784F8"/>
</svg>
