<svg width="14" height="13" viewBox="0 0 14 13" fill="none" xmlns="http://www.w3.org/2000/svg">
<path d="M0.599976 2C0.599976 1.57566 0.768546 1.16869 1.0686 0.868631C1.36866 0.568572 1.77563 0.400002 2.19998 0.400002H7.79998C8.22432 0.400002 8.63129 0.568572 8.93135 0.868631C9.2314 1.16869 9.39997 1.57566 9.39997 2V5.2C9.39997 5.62435 9.2314 6.03131 8.93135 6.33137C8.63129 6.63143 8.22432 6.8 7.79998 6.8H6.19998L3.79998 9.2V6.8H2.19998C1.77563 6.8 1.36866 6.63143 1.0686 6.33137C0.768546 6.03131 0.599976 5.62435 0.599976 5.2V2Z" fill="white"/>
<path d="M11 3.6V5.2C11 6.04869 10.6628 6.86263 10.0627 7.46274C9.46261 8.06286 8.64868 8.4 7.79998 8.4H6.86238L5.44958 9.8136C5.67358 9.9328 5.92878 10 6.19998 10H7.79998L10.2 12.4V10H11.8C12.2243 10 12.6313 9.83143 12.9314 9.53137C13.2314 9.23131 13.4 8.82435 13.4 8.4V5.2C13.4 4.77566 13.2314 4.36869 12.9314 4.06863C12.6313 3.76857 12.2243 3.6 11.8 3.6H11Z" fill="white"/>
</svg>
