<svg width="20" height="19" viewBox="0 0 20 19" fill="none" xmlns="http://www.w3.org/2000/svg">
<path d="M0.399902 2.99998C0.399902 2.36346 0.652759 1.75301 1.10285 1.30292C1.55293 0.852832 2.16338 0.599976 2.7999 0.599976H11.1999C11.8364 0.599976 12.4469 0.852832 12.897 1.30292C13.347 1.75301 13.5999 2.36346 13.5999 2.99998V7.79998C13.5999 8.43649 13.347 9.04694 12.897 9.49703C12.4469 9.94712 11.8364 10.2 11.1999 10.2H8.7999L5.1999 13.8V10.2H2.7999C2.16338 10.2 1.55293 9.94712 1.10285 9.49703C0.652759 9.04694 0.399902 8.43649 0.399902 7.79998V2.99998Z" fill="#3C88EB"/>
<path opacity="0.5" d="M15.9999 5.40002V7.80002C15.9999 9.07306 15.4942 10.294 14.594 11.1941C13.6939 12.0943 12.473 12.6 11.1999 12.6H9.79352L7.67432 14.7204C8.01032 14.8992 8.39312 15 8.79992 15H11.1999L14.7999 18.6V15H17.1999C17.8364 15 18.4469 14.7472 18.897 14.2971C19.3471 13.847 19.5999 13.2365 19.5999 12.6V7.80002C19.5999 7.1635 19.3471 6.55306 18.897 6.10297C18.4469 5.65288 17.8364 5.40002 17.1999 5.40002H15.9999Z" fill="#3C88EB"/>
</svg>
