<svg width="14" height="16" viewBox="0 0 14 16" fill="none" xmlns="http://www.w3.org/2000/svg">
<path d="M6.40514 4.466V1.75C6.40514 1.28587 6.22076 0.840752 5.89257 0.512563C5.56438 0.184374 5.11927 0 4.65514 0C4.19101 0 3.74589 0.184374 3.4177 0.512563C3.08951 0.840752 2.90514 1.28587 2.90514 1.75V7.09L1.70514 7.33C1.33731 7.40374 1.01048 7.61264 0.78908 7.91548C0.567684 8.21833 0.467804 8.59314 0.509136 8.966L0.854136 12.072C0.898504 12.469 1.03738 12.8497 1.25914 13.182L2.69214 15.332C2.8291 15.5375 3.01468 15.7059 3.23238 15.8225C3.45009 15.939 3.6932 16 3.94014 16H10.3251C10.5895 15.9999 10.8492 15.9299 11.0779 15.7972C11.3065 15.6644 11.496 15.4736 11.6271 15.244L13.0221 12.803C13.266 12.3763 13.4173 11.903 13.4661 11.414L13.7371 8.699C13.7649 8.42097 13.7342 8.14019 13.6468 7.87478C13.5595 7.60936 13.4175 7.36519 13.23 7.15801C13.0425 6.95083 12.8137 6.78524 12.5583 6.67191C12.3029 6.55857 12.0266 6.50001 11.7471 6.5H11.1661C11.1037 6.41535 11.0387 6.33264 10.9711 6.252C10.7801 6.023 10.4611 5.684 10.0911 5.536C9.72714 5.39 9.24514 5.404 8.93314 5.428L8.80114 5.44C8.69467 5.16747 8.49668 4.94049 8.24114 4.798C8.01108 4.66532 7.76226 4.56822 7.50314 4.51C7.19314 4.448 6.76414 4.452 6.45314 4.464L6.40514 4.466Z" fill="#FCA727"/>
</svg>
