<svg width="16" height="16" viewBox="0 0 16 16" fill="none" xmlns="http://www.w3.org/2000/svg">
<path d="M7.99979 0.888672C6.59334 0.888672 5.21848 1.30573 4.04906 2.08711C2.87965 2.86849 1.9682 3.97909 1.42998 5.27848C0.891753 6.57786 0.750929 8.00767 1.02531 9.38709C1.2997 10.7665 1.97696 12.0336 2.97147 13.0281C3.96598 14.0226 5.23306 14.6999 6.61248 14.9743C7.9919 15.2486 9.4217 15.1078 10.7211 14.5696C12.0205 14.0314 13.1311 13.1199 13.9125 11.9505C14.6938 10.7811 15.1109 9.40623 15.1109 7.99978C15.1109 6.1138 14.3617 4.30506 13.0281 2.97147C11.6945 1.63788 9.88577 0.888672 7.99979 0.888672ZM12.6442 5.61312L6.80423 11.4487L3.35534 7.99978C3.23747 7.88191 3.17125 7.72204 3.17125 7.55534C3.17125 7.38864 3.23747 7.22877 3.35534 7.11089C3.47322 6.99302 3.63309 6.9268 3.79979 6.9268C3.96649 6.9268 4.12636 6.99302 4.24423 7.11089L6.81312 9.67978L11.7642 4.73312C11.8226 4.67475 11.8919 4.62845 11.9681 4.59687C12.0444 4.56528 12.1261 4.54902 12.2087 4.54902C12.2912 4.54902 12.3729 4.56528 12.4492 4.59687C12.5255 4.62845 12.5948 4.67475 12.6531 4.73312C12.7115 4.79148 12.7578 4.86077 12.7894 4.93703C12.821 5.01329 12.8372 5.09502 12.8372 5.17756C12.8372 5.2601 12.821 5.34183 12.7894 5.41809C12.7578 5.49435 12.7115 5.56364 12.6531 5.622L12.6442 5.61312Z" fill="#1BC182"/>
</svg>
