<svg width="16" height="16" viewBox="0 0 16 16" fill="none" xmlns="http://www.w3.org/2000/svg">
<path d="M8 0.888885C6.59355 0.888885 5.21869 1.30594 4.04928 2.08732C2.87986 2.8687 1.96841 3.97931 1.43019 5.27869C0.891967 6.57808 0.751143 8.00788 1.02553 9.38731C1.29991 10.7667 1.97718 12.0338 2.97168 13.0283C3.96619 14.0228 5.23327 14.7001 6.61269 14.9745C7.99211 15.2489 9.42192 15.108 10.7213 14.5698C12.0207 14.0316 13.1313 13.1201 13.9127 11.9507C14.6941 10.7813 15.1111 9.40644 15.1111 8C15.1111 6.11401 14.3619 4.30527 13.0283 2.97168C11.6947 1.63809 9.88598 0.888885 8 0.888885ZM12.6444 5.61333L6.80444 11.4489L3.35556 8C3.23768 7.88212 3.17146 7.72225 3.17146 7.55555C3.17146 7.38885 3.23768 7.22898 3.35556 7.11111C3.47343 6.99323 3.6333 6.92701 3.8 6.92701C3.9667 6.92701 4.12657 6.99323 4.24444 7.11111L6.81333 9.68L11.7644 4.73333C11.8228 4.67496 11.8921 4.62867 11.9684 4.59708C12.0446 4.56549 12.1263 4.54923 12.2089 4.54923C12.2914 4.54923 12.3732 4.56549 12.4494 4.59708C12.5257 4.62867 12.595 4.67496 12.6533 4.73333C12.7117 4.79169 12.758 4.86098 12.7896 4.93724C12.8212 5.0135 12.8374 5.09523 12.8374 5.17777C12.8374 5.26031 12.8212 5.34205 12.7896 5.41831C12.758 5.49456 12.7117 5.56385 12.6533 5.62222L12.6444 5.61333Z" fill="current"/>
</svg>
