<svg width="909" height="909" viewBox="0 0 909 909" fill="none" xmlns="http://www.w3.org/2000/svg">
<path d="M454.498 857.428C231.967 857.428 51.5703 677.031 51.5703 454.5C51.5703 357.565 85.8004 268.625 142.832 199.108C119.334 286.274 141.858 385.601 199.693 449.314C265.179 521.455 372.593 554.101 498.933 491.84C547.457 467.927 591.552 481.498 635.272 505.777C651.488 514.782 667.627 525.247 683.914 535.806L683.915 535.807L683.925 535.814L683.928 535.816C689.599 539.493 695.288 543.181 701.004 546.823C723.127 560.92 745.642 574.316 769.026 583.607C788.811 591.469 810.793 595.074 832.306 594.859C775.321 748.188 627.667 857.428 454.498 857.428Z" fill="white" fill-opacity="0.75"/>
<path d="M454.498 857.428C231.967 857.428 51.5703 677.031 51.5703 454.5C51.5703 425.625 54.6077 397.459 60.3804 370.305C84.7049 400.532 118.492 432.718 164.689 444.253C217.901 457.54 288.217 446.572 381.782 384.152C428.459 353.012 470.072 341.654 506.699 343.125C543.327 344.596 575.023 358.899 601.862 379.173C655.558 419.734 689.746 484.146 704.952 517.234C720.229 550.475 750.196 579.208 798.933 591.272C808.689 593.687 820.55 594.608 832.091 595.436C774.95 748.461 627.45 857.428 454.498 857.428Z" fill="white" fill-opacity="0.55"/>
<path d="M454.498 857.416C231.967 857.416 51.5703 677.019 51.5703 454.488C51.5703 365.035 80.7203 282.39 130.039 215.535C-8.15231 463.689 149.725 540.11 202.601 560.678C224.301 569.118 247.047 569.438 271.063 569.776C307.073 570.282 345.94 570.829 388.422 598.854C456.143 643.532 477.013 679.02 509.016 733.44C510.477 735.924 511.961 738.447 513.474 741.013C549.531 802.166 667.883 806.54 756.62 721.092C682.791 804.693 574.802 857.416 454.498 857.416Z" fill="white"/>
<path d="M909 454.5C909 705.513 705.513 909 454.5 909C203.487 909 0 705.513 0 454.5C0 203.487 203.487 0 454.5 0C705.513 0 909 203.487 909 454.5ZM51.5718 454.5C51.5718 677.031 231.969 857.428 454.5 857.428C677.031 857.428 857.428 677.031 857.428 454.5C857.428 231.969 677.031 51.5718 454.5 51.5718C231.969 51.5718 51.5718 231.969 51.5718 454.5Z" fill="white"/>
</svg>
