<svg width="5051" height="909" viewBox="0 0 5051 909" fill="none" xmlns="http://www.w3.org/2000/svg">
<path d="M454.498 857.428C231.967 857.428 51.5703 677.031 51.5703 454.5C51.5703 357.565 85.8004 268.625 142.832 199.108C119.334 286.274 141.858 385.601 199.693 449.313C265.179 521.455 372.593 554.101 498.933 491.84C547.457 467.927 591.552 481.498 635.272 505.777C651.488 514.782 667.627 525.247 683.914 535.806L683.915 535.807L683.925 535.814L683.928 535.816C689.599 539.492 695.288 543.181 701.004 546.823C723.127 560.92 745.642 574.315 769.026 583.607C788.811 591.469 810.793 595.074 832.306 594.859C775.321 748.187 627.667 857.428 454.498 857.428Z" fill="url(#paint0_linear_335_22)"/>
<path d="M454.498 857.428C231.967 857.428 51.5703 677.031 51.5703 454.5C51.5703 425.625 54.6077 397.459 60.3804 370.305C84.7049 400.532 118.492 432.718 164.689 444.253C217.901 457.54 288.217 446.572 381.782 384.152C428.459 353.012 470.072 341.654 506.699 343.125C543.327 344.596 575.023 358.899 601.862 379.173C655.558 419.734 689.746 484.146 704.952 517.234C720.229 550.475 750.196 579.208 798.933 591.272C808.689 593.687 820.55 594.608 832.091 595.436C774.95 748.461 627.45 857.428 454.498 857.428Z" fill="#0A82FF" fill-opacity="0.4"/>
<circle cx="454.5" cy="454.5" r="454.5" fill="url(#paint1_linear_335_22)" fill-opacity="0.9"/>
<circle cx="454.5" cy="454.5" r="454.5" fill="url(#paint2_radial_335_22)" fill-opacity="0.9"/>
<path d="M454.498 857.416C231.967 857.416 51.5703 677.019 51.5703 454.488C51.5703 365.035 80.7203 282.39 130.039 215.535C-8.15231 463.689 149.725 540.11 202.601 560.678C224.301 569.118 247.047 569.438 271.063 569.776C307.073 570.282 345.94 570.829 388.422 598.854C456.143 643.532 477.013 679.02 509.016 733.44C510.477 735.924 511.961 738.447 513.474 741.013C549.531 802.166 667.883 806.54 756.62 721.092C682.791 804.693 574.802 857.416 454.498 857.416Z" fill="url(#paint3_linear_335_22)"/>
<path d="M909 454.5C909 705.513 705.513 909 454.5 909C203.487 909 0 705.513 0 454.5C0 203.487 203.487 0 454.5 0C705.513 0 909 203.487 909 454.5ZM51.5718 454.5C51.5718 677.031 231.969 857.428 454.5 857.428C677.031 857.428 857.428 677.031 857.428 454.5C857.428 231.969 677.031 51.5718 454.5 51.5718C231.969 51.5718 51.5718 231.969 51.5718 454.5Z" fill="url(#paint4_linear_335_22)"/>
<path d="M1246.4 642.5V257.5H1316.8V417.55H1489.5V257.5H1559.9V642.5H1489.5V474.75H1316.8V642.5H1246.4ZM1763.98 649.1C1737.58 649.1 1713.75 643.05 1692.48 630.95C1671.58 618.85 1654.9 602.167 1642.43 580.9C1630.33 559.267 1624.28 534.333 1624.28 506.1C1624.28 477.867 1630.51 453.117 1642.98 431.85C1655.45 410.217 1672.13 393.35 1693.03 381.25C1714.3 369.15 1738.13 363.1 1764.53 363.1C1790.56 363.1 1814.03 369.15 1834.93 381.25C1856.2 393.35 1872.88 410.217 1884.98 431.85C1897.45 453.117 1903.68 477.867 1903.68 506.1C1903.68 534.333 1897.45 559.267 1884.98 580.9C1872.88 602.167 1856.2 618.85 1834.93 630.95C1813.66 643.05 1790.01 649.1 1763.98 649.1ZM1763.98 588.05C1782.31 588.05 1798.26 581.267 1811.83 567.7C1825.4 553.767 1832.18 533.233 1832.18 506.1C1832.18 478.967 1825.4 458.617 1811.83 445.05C1798.26 431.117 1782.5 424.15 1764.53 424.15C1745.83 424.15 1729.7 431.117 1716.13 445.05C1702.93 458.617 1696.33 478.967 1696.33 506.1C1696.33 533.233 1702.93 553.767 1716.13 567.7C1729.7 581.267 1745.65 588.05 1763.98 588.05ZM2077.43 642.5C2048.83 642.5 2025.92 635.533 2008.68 621.6C1991.45 607.667 1982.83 582.917 1982.83 547.35V428.55H1936.08V369.7H1982.83L1991.08 296.55H2053.23V369.7H2126.93V428.55H2053.23V547.9C2053.23 561.1 2055.98 570.267 2061.48 575.4C2067.35 580.167 2077.25 582.55 2091.18 582.55H2125.28V642.5H2077.43ZM2312.94 649.1C2285.44 649.1 2261.06 643.233 2239.79 631.5C2218.53 619.767 2201.84 603.267 2189.74 582C2177.64 560.733 2171.59 536.167 2171.59 508.3C2171.59 480.067 2177.46 454.95 2189.19 432.95C2201.29 410.95 2217.79 393.9 2238.69 381.8C2259.96 369.333 2284.89 363.1 2313.49 363.1C2340.26 363.1 2363.91 368.967 2384.44 380.7C2404.98 392.433 2420.93 408.567 2432.29 429.1C2444.03 449.267 2449.89 471.817 2449.89 496.75C2449.89 500.783 2449.71 505 2449.34 509.4C2449.34 513.8 2449.16 518.383 2448.79 523.15H2241.44C2242.91 544.417 2250.24 561.1 2263.44 573.2C2277.01 585.3 2293.33 591.35 2312.39 591.35C2326.69 591.35 2338.61 588.233 2348.14 582C2358.04 575.4 2365.38 566.967 2370.14 556.7H2441.64C2436.51 573.933 2427.89 589.7 2415.79 604C2404.06 617.933 2389.39 628.933 2371.79 637C2354.56 645.067 2334.94 649.1 2312.94 649.1ZM2313.49 420.3C2296.26 420.3 2281.04 425.25 2267.84 435.15C2254.64 444.683 2246.21 459.35 2242.54 479.15H2378.39C2377.29 461.183 2370.69 446.883 2358.59 436.25C2346.49 425.617 2331.46 420.3 2313.49 420.3ZM2509.11 642.5V246.5H2579.51V642.5H2509.11ZM2784.14 642.5V257.5H2867.74L2990.39 501.7L3111.39 257.5H3194.99V642.5H3124.59V376.85L3017.34 587.5H2961.79L2854.54 376.85V642.5H2784.14ZM3362.09 649.1C3338.62 649.1 3319.37 645.433 3304.34 638.1C3289.31 630.4 3278.12 620.317 3270.79 607.85C3263.46 595.383 3259.79 581.633 3259.79 566.6C3259.79 541.3 3269.69 520.767 3289.49 505C3309.29 489.233 3338.99 481.35 3378.59 481.35H3447.89V474.75C3447.89 456.05 3442.57 442.3 3431.94 433.5C3421.31 424.7 3408.11 420.3 3392.34 420.3C3378.04 420.3 3365.57 423.783 3354.94 430.75C3344.31 437.35 3337.71 447.25 3335.14 460.45H3266.39C3268.22 440.65 3274.82 423.417 3286.19 408.75C3297.92 394.083 3312.96 382.9 3331.29 375.2C3349.62 367.133 3370.16 363.1 3392.89 363.1C3431.76 363.1 3462.37 372.817 3484.74 392.25C3507.11 411.683 3518.29 439.183 3518.29 474.75V642.5H3458.34L3451.74 598.5C3443.67 613.167 3432.31 625.267 3417.64 634.8C3403.34 644.333 3384.82 649.1 3362.09 649.1ZM3378.04 594.1C3398.21 594.1 3413.79 587.5 3424.79 574.3C3436.16 561.1 3443.31 544.783 3446.24 525.35H3386.29C3367.59 525.35 3354.21 528.833 3346.14 535.8C3338.07 542.4 3334.04 550.65 3334.04 560.55C3334.04 571.183 3338.07 579.433 3346.14 585.3C3354.21 591.167 3364.84 594.1 3378.04 594.1ZM3585.47 642.5V369.7H3647.62L3653.12 415.9C3661.56 399.767 3673.66 386.933 3689.42 377.4C3705.56 367.867 3724.44 363.1 3746.07 363.1C3779.81 363.1 3806.02 373.733 3824.72 395C3843.42 416.267 3852.77 447.433 3852.77 488.5V642.5H3782.37V495.1C3782.37 471.633 3777.61 453.667 3768.07 441.2C3758.54 428.733 3743.69 422.5 3723.52 422.5C3703.72 422.5 3687.41 429.467 3674.57 443.4C3662.11 457.333 3655.87 476.767 3655.87 501.7V642.5H3585.47ZM4014.14 649.1C3990.68 649.1 3971.43 645.433 3956.39 638.1C3941.36 630.4 3930.18 620.317 3922.84 607.85C3915.51 595.383 3911.84 581.633 3911.84 566.6C3911.84 541.3 3921.74 520.767 3941.54 505C3961.34 489.233 3991.04 481.35 4030.64 481.35H4099.94V474.75C4099.94 456.05 4094.63 442.3 4083.99 433.5C4073.36 424.7 4060.16 420.3 4044.39 420.3C4030.09 420.3 4017.63 423.783 4006.99 430.75C3996.36 437.35 3989.76 447.25 3987.19 460.45H3918.44C3920.28 440.65 3926.88 423.417 3938.24 408.75C3949.98 394.083 3965.01 382.9 3983.34 375.2C4001.68 367.133 4022.21 363.1 4044.94 363.1C4083.81 363.1 4114.43 372.817 4136.79 392.25C4159.16 411.683 4170.34 439.183 4170.34 474.75V642.5H4110.39L4103.79 598.5C4095.73 613.167 4084.36 625.267 4069.69 634.8C4055.39 644.333 4036.88 649.1 4014.14 649.1ZM4030.09 594.1C4050.26 594.1 4065.84 587.5 4076.84 574.3C4088.21 561.1 4095.36 544.783 4098.29 525.35H4038.34C4019.64 525.35 4006.26 528.833 3998.19 535.8C3990.13 542.4 3986.09 550.65 3986.09 560.55C3986.09 571.183 3990.13 579.433 3998.19 585.3C4006.26 591.167 4016.89 594.1 4030.09 594.1ZM4353.02 561.1C4339.82 561.1 4327.54 559.633 4316.17 556.7L4295.82 577.05C4302.06 580.35 4310.49 583.1 4321.12 585.3C4331.76 587.5 4348.99 589.7 4372.82 591.9C4409.12 595.2 4435.52 603.817 4452.02 617.75C4468.52 631.683 4476.77 650.933 4476.77 675.5C4476.77 691.633 4472.37 706.85 4463.57 721.15C4454.77 735.817 4441.21 747.55 4422.87 756.35C4404.54 765.517 4381.07 770.1 4352.47 770.1C4313.61 770.1 4282.26 762.767 4258.42 748.1C4234.59 733.8 4222.67 712.167 4222.67 683.2C4222.67 658.633 4234.59 637.367 4258.42 619.4C4251.09 616.1 4244.67 612.617 4239.17 608.95C4234.04 605.283 4229.46 601.433 4225.42 597.4V584.75L4273.27 534.15C4252.01 515.45 4241.37 491.433 4241.37 462.1C4241.37 443.767 4245.77 427.083 4254.57 412.05C4263.74 397.017 4276.57 385.1 4293.07 376.3C4309.57 367.5 4329.56 363.1 4353.02 363.1C4368.42 363.1 4382.72 365.3 4395.92 369.7H4499.32V412.6L4452.57 415.9C4459.91 429.833 4463.57 445.233 4463.57 462.1C4463.57 480.433 4459.17 497.117 4450.37 512.15C4441.57 527.183 4428.74 539.1 4411.87 547.9C4395.37 556.7 4375.76 561.1 4353.02 561.1ZM4353.02 507.2C4367.32 507.2 4379.06 503.35 4388.22 495.65C4397.76 487.95 4402.52 476.95 4402.52 462.65C4402.52 448.35 4397.76 437.35 4388.22 429.65C4379.06 421.95 4367.32 418.1 4353.02 418.1C4337.99 418.1 4325.89 421.95 4316.72 429.65C4307.56 437.35 4302.97 448.35 4302.97 462.65C4302.97 476.95 4307.56 487.95 4316.72 495.65C4325.89 503.35 4337.99 507.2 4353.02 507.2ZM4287.02 676.05C4287.02 689.617 4293.26 699.7 4305.72 706.3C4318.56 713.267 4334.14 716.75 4352.47 716.75C4370.07 716.75 4384.37 713.083 4395.37 705.75C4406.37 698.783 4411.87 689.25 4411.87 677.15C4411.87 667.25 4408.21 659 4400.87 652.4C4393.91 645.8 4379.79 641.767 4358.52 640.3C4343.49 639.2 4329.56 637.55 4316.72 635.35C4306.09 641.217 4298.39 647.633 4293.62 654.6C4289.22 661.567 4287.02 668.717 4287.02 676.05ZM4672.47 649.1C4644.97 649.1 4620.58 643.233 4599.32 631.5C4578.05 619.767 4561.37 603.267 4549.27 582C4537.17 560.733 4531.12 536.167 4531.12 508.3C4531.12 480.067 4536.98 454.95 4548.72 432.95C4560.82 410.95 4577.32 393.9 4598.22 381.8C4619.48 369.333 4644.42 363.1 4673.02 363.1C4699.78 363.1 4723.43 368.967 4743.97 380.7C4764.5 392.433 4780.45 408.567 4791.82 429.1C4803.55 449.267 4809.42 471.817 4809.42 496.75C4809.42 500.783 4809.23 505 4808.87 509.4C4808.87 513.8 4808.68 518.383 4808.32 523.15H4600.97C4602.43 544.417 4609.77 561.1 4622.97 573.2C4636.53 585.3 4652.85 591.35 4671.92 591.35C4686.22 591.35 4698.13 588.233 4707.67 582C4717.57 575.4 4724.9 566.967 4729.67 556.7H4801.17C4796.03 573.933 4787.42 589.7 4775.32 604C4763.58 617.933 4748.92 628.933 4731.32 637C4714.08 645.067 4694.47 649.1 4672.47 649.1ZM4673.02 420.3C4655.78 420.3 4640.57 425.25 4627.37 435.15C4614.17 444.683 4605.73 459.35 4602.07 479.15H4737.92C4736.82 461.183 4730.22 446.883 4718.12 436.25C4706.02 425.617 4690.98 420.3 4673.02 420.3ZM4868.63 642.5V369.7H4931.33L4937.93 420.85C4947.83 403.25 4961.21 389.317 4978.08 379.05C4995.31 368.417 5015.48 363.1 5038.58 363.1V437.35H5018.78C5003.38 437.35 4989.63 439.733 4977.53 444.5C4965.43 449.267 4955.89 457.517 4948.93 469.25C4942.33 480.983 4939.03 497.3 4939.03 518.2V642.5H4868.63Z" fill="#0B75E3"/>
<defs>
<linearGradient id="paint0_linear_335_22" x1="441.938" y1="199.108" x2="441.938" y2="857.428" gradientUnits="userSpaceOnUse">
<stop stop-color="#3246CF"/>
<stop offset="1" stop-color="#1763D7"/>
</linearGradient>
<linearGradient id="paint1_linear_335_22" x1="92.5" y1="880.5" x2="290" y2="497" gradientUnits="userSpaceOnUse">
<stop stop-color="#0E1E2D"/>
<stop offset="1" stop-color="#121B67" stop-opacity="0"/>
</linearGradient>
<radialGradient id="paint2_radial_335_22" cx="0" cy="0" r="1" gradientUnits="userSpaceOnUse" gradientTransform="translate(306 736.5) rotate(-43.7232) scale(238.001)">
<stop stop-color="#2C389F"/>
<stop offset="1" stop-color="#2C389F" stop-opacity="0"/>
</radialGradient>
<linearGradient id="paint3_linear_335_22" x1="412.995" y1="196" x2="412.995" y2="858.988" gradientUnits="userSpaceOnUse">
<stop stop-color="#0B75E3"/>
<stop offset="1" stop-color="#0B75E3"/>
</linearGradient>
<linearGradient id="paint4_linear_335_22" x1="454.5" y1="0" x2="454.5" y2="909" gradientUnits="userSpaceOnUse">
<stop stop-color="#0B75E3"/>
<stop offset="1" stop-color="#0B75E3"/>
</linearGradient>
</defs>
</svg>
